<svg width="206" height="85" viewBox="0 0 206 85" fill="none" xmlns="http://www.w3.org/2000/svg">
<path d="M34.9501 1.58472C32.6201 16.0018 32.1259 33.14 26.9492 46.9446C23.5156 56.1007 19.3213 68.1271 6.66319 64.9626C1.20773 63.5987 2.12254 55.194 3.7652 51.5436C5.7832 47.0592 8.77057 48.5081 12.9632 49.9056C26.718 54.4906 39.6948 58.8068 54.1651 60.6156C64.3955 61.8944 73.5126 55.673 76.0261 44.6766C77.2338 39.3929 72.4208 41.8814 71.2381 45.1806C69.5601 49.8614 67.1941 58.0598 71.2381 62.3166C72.3785 63.5171 76.9081 64.2068 76.9081 61.6866C76.9081 59.8392 74.6401 57.8757 74.6401 54.8826" stroke="#F8F8F8" stroke-width="3" stroke-linecap="round"/>
<path d="M75.7741 32.2027C75.3512 26.2822 73.8956 19.5796 76.6561 14.0587C77.3413 12.6882 75.9228 16.7173 75.7741 17.4607" stroke="#F8F8F8" stroke-width="3" stroke-linecap="round"/>
<path d="M104.124 45.8106C96.5899 40.714 92.7521 38.9745 86.4841 46.1886C85.0066 47.8891 80.4286 52.9061 84.4681 54.2526C93.8073 57.3657 104.065 51.4801 113.826 56.2686C125.307 61.901 105.616 67.9796 101.478 68.3646C90.8788 69.3506 92.3306 63.5657 99.5881 59.4186" stroke="#F8F8F8" stroke-width="3" stroke-linecap="round"/>
<path d="M137.01 29.9347C140.474 22.5729 143.753 15.1176 147.216 7.75871C148.116 5.8461 145.662 11.6912 144.948 13.6807C140.181 26.9613 139.131 42.2946 138.396 56.2686C138.279 58.4958 137.961 80.8001 136.947 80.2086C131.915 77.2735 130.646 64.7025 129.324 59.6706C128.29 55.7318 127.567 51.7389 127.056 47.7006C127.037 47.5509 126.116 41.536 125.67 42.0936C122.22 46.4061 128.944 48.7273 131.844 48.9606C142.848 49.846 153.661 42.9765 162.273 36.8647C166.175 34.0955 166.42 33.0416 165.36 28.8007" stroke="#F8F8F8" stroke-width="3" stroke-linecap="round"/>
<path d="M186.906 43.5426C216.242 42.8183 182.37 25.9757 182.37 36.7387" stroke="#F8F8F8" stroke-width="3" stroke-linecap="round"/>
<path d="M191.442 77.5626C187.358 78.8548 175.881 84.1701 186.969 82.5396C192.982 81.6552 202.006 77.7486 204.105 71.4516C205.989 65.7997 194.233 65.12 191.19 65.0886C188.81 65.0641 178.968 66.5333 178.968 66.2226" stroke="#F8F8F8" stroke-width="3" stroke-linecap="round"/>
</svg>
